<svg xmlns="http://www.w3.org/2000/svg" viewBox="70 0 180 104" width="200" height="200">
  <defs>
    <linearGradient id="grad" x1="0%" y1="0%" x2="100%" y2="100%">
      <stop offset="0%" stop-color="#e0e0e0"/>
      <stop offset="100%" stop-color="#a0a0a0"/>
    </linearGradient>
  </defs>
  <path fill="url(#grad)" d="
    M127.667,1
    C129.848,5.087 131.49,9.281 133.576,13.242
    C147.906,40.462 162.329,67.634 176.721,94.821
    C177.859,96.971 178.992,99.125 179.491,102.1
    C176.27,100.388 173.02,98.731 169.835,96.954
    C163.038,93.162 156.491,88.838 149.441,85.605
    C141.405,81.921 135.63,76.422 131.851,68.542
    C130.65,66.039 129.007,63.748 126.654,59.846
    C125.803,61.524 125.2,62.489 124.803,63.533
    C119.684,76.997 108.829,84.251 96.556,90.248
    C88.994,93.942 81.81,98.408 74.173,102.232
    C76.74,96.45 79.339,90.817 82.215,85.328
    C90.717,69.099 99.316,52.921 107.903,36.737
    C114.14,24.982 120.42,13.25 125.871,1.254
    Z"/>
</svg>
